<?xml version="1.0" encoding="utf-8"?>
<!-- Generator: Adobe Illustrator 23.0.3, SVG Export Plug-In . SVG Version: 6.00 Build 0)  -->
<svg version="1.1" id="Layer_1" xmlns="http://www.w3.org/2000/svg" xmlns:xlink="http://www.w3.org/1999/xlink" x="0px" y="0px"
	 viewBox="0 0 700 600" style="enable-background:new 0 0 700 600;" xml:space="preserve">
<style type="text/css">
	.st0{fill:#C61282;}
	.st1{filter:url(#Adobe_OpacityMaskFilter);}
	.st2{opacity:0.3;mask:url(#SVGID_1_);}
	.st3{fill:#232323;}
	.st4{display:none;opacity:0.36;fill:none;stroke:url(#SVGID_2_);stroke-width:3;stroke-miterlimit:10;}
	.st5{display:none;}
	.st6{opacity:0.68;fill:none;stroke:url(#SVGID_3_);stroke-width:3;stroke-miterlimit:10;}
	.st7{opacity:0.68;fill:none;stroke:url(#SVGID_4_);stroke-width:3;stroke-miterlimit:10;}
	.st8{opacity:0.68;fill:none;stroke:url(#SVGID_5_);stroke-width:3;stroke-miterlimit:10;}
	.st9{opacity:0.68;fill:none;stroke:url(#SVGID_6_);stroke-width:3;stroke-miterlimit:10;}
	.st10{opacity:0.68;fill:none;stroke:url(#SVGID_7_);stroke-width:3;stroke-miterlimit:10;}
	.st11{opacity:0.68;fill:none;stroke:url(#SVGID_8_);stroke-width:3;stroke-miterlimit:10;}
</style>
<g>
	<g>
		<path class="st0" d="M675,0H25C11.2,0,0,11.2,0,25v550c0,13.8,11.2,25,25,25h650c13.8,0,25-11.2,25-25V25C700,11.2,688.8,0,675,0z
			 M650,10c22.1,0,40,17.9,40,40s-17.9,40-40,40s-40-17.9-40-40S627.9,10,650,10z M550,10c22.1,0,40,17.9,40,40s-17.9,40-40,40
			s-40-17.9-40-40S527.9,10,550,10z M550,490c-22.1,0-40-17.9-40-40s17.9-40,40-40s40,17.9,40,40S572.1,490,550,490z M450,490
			c-22.1,0-40-17.9-40-40s17.9-40,40-40s40,17.9,40,40S472.1,490,450,490z M350,490c-22.1,0-40-17.9-40-40s17.9-40,40-40
			s40,17.9,40,40S372.1,490,350,490z M250,490c-22.1,0-40-17.9-40-40s17.9-40,40-40s40,17.9,40,40S272.1,490,250,490z M150,490
			c-22.1,0-40-17.9-40-40s17.9-40,40-40s40,17.9,40,40S172.1,490,150,490z M150,110c22.1,0,40,17.9,40,40s-17.9,40-40,40
			s-40-17.9-40-40S127.9,110,150,110z M250,110c22.1,0,40,17.9,40,40s-17.9,40-40,40s-40-17.9-40-40S227.9,110,250,110z M350,110
			c22.1,0,40,17.9,40,40s-17.9,40-40,40s-40-17.9-40-40S327.9,110,350,110z M450,110c22.1,0,40,17.9,40,40s-17.9,40-40,40
			s-40-17.9-40-40S427.9,110,450,110z M490,350c0,22.1-17.9,40-40,40s-40-17.9-40-40s17.9-40,40-40S490,327.9,490,350z M390,350
			c0,22.1-17.9,40-40,40s-40-17.9-40-40s17.9-40,40-40S390,327.9,390,350z M290,350c0,22.1-17.9,40-40,40s-40-17.9-40-40
			s17.9-40,40-40S290,327.9,290,350z M210,250c0-22.1,17.9-40,40-40s40,17.9,40,40s-17.9,40-40,40S210,272.1,210,250z M310,250
			c0-22.1,17.9-40,40-40s40,17.9,40,40s-17.9,40-40,40S310,272.1,310,250z M450,290c-22.1,0-40-17.9-40-40s17.9-40,40-40
			s40,17.9,40,40S472.1,290,450,290z M150,210c22.1,0,40,17.9,40,40s-17.9,40-40,40s-40-17.9-40-40S127.9,210,150,210z M150,310
			c22.1,0,40,17.9,40,40s-17.9,40-40,40s-40-17.9-40-40S127.9,310,150,310z M550,390c-22.1,0-40-17.9-40-40s17.9-40,40-40
			s40,17.9,40,40S572.1,390,550,390z M550,290c-22.1,0-40-17.9-40-40s17.9-40,40-40s40,17.9,40,40S572.1,290,550,290z M550,190
			c-22.1,0-40-17.9-40-40s17.9-40,40-40s40,17.9,40,40S572.1,190,550,190z M450,10c22.1,0,40,17.9,40,40s-17.9,40-40,40
			s-40-17.9-40-40S427.9,10,450,10z M350,10c22.1,0,40,17.9,40,40s-17.9,40-40,40s-40-17.9-40-40S327.9,10,350,10z M250,10
			c22.1,0,40,17.9,40,40s-17.9,40-40,40s-40-17.9-40-40S227.9,10,250,10z M150,10c22.1,0,40,17.9,40,40s-17.9,40-40,40
			s-40-17.9-40-40S127.9,10,150,10z M50,10c22.1,0,40,17.9,40,40S72.1,90,50,90S10,72.1,10,50S27.9,10,50,10z M90,150
			c0,22.1-17.9,40-40,40s-40-17.9-40-40s17.9-40,40-40S90,127.9,90,150z M90,250c0,22.1-17.9,40-40,40s-40-17.9-40-40s17.9-40,40-40
			S90,227.9,90,250z M90,350c0,22.1-17.9,40-40,40s-40-17.9-40-40s17.9-40,40-40S90,327.9,90,350z M90,450c0,22.1-17.9,40-40,40
			s-40-17.9-40-40s17.9-40,40-40S90,427.9,90,450z M50,590c-22.1,0-40-17.9-40-40s17.9-40,40-40s40,17.9,40,40S72.1,590,50,590z
			 M150,590c-22.1,0-40-17.9-40-40s17.9-40,40-40s40,17.9,40,40S172.1,590,150,590z M250,590c-22.1,0-40-17.9-40-40s17.9-40,40-40
			s40,17.9,40,40S272.1,590,250,590z M350,590c-22.1,0-40-17.9-40-40s17.9-40,40-40s40,17.9,40,40S372.1,590,350,590z M450,590
			c-22.1,0-40-17.9-40-40s17.9-40,40-40s40,17.9,40,40S472.1,590,450,590z M550,590c-22.1,0-40-17.9-40-40s17.9-40,40-40
			s40,17.9,40,40S572.1,590,550,590z M650,590c-22.1,0-40-17.9-40-40s17.9-40,40-40s40,17.9,40,40S672.1,590,650,590z M610,450
			c0-22.1,17.9-40,40-40s40,17.9,40,40s-17.9,40-40,40S610,472.1,610,450z M610,350c0-22.1,17.9-40,40-40s40,17.9,40,40
			s-17.9,40-40,40S610,372.1,610,350z M610,250c0-22.1,17.9-40,40-40s40,17.9,40,40s-17.9,40-40,40S610,272.1,610,250z M610,150
			c0-22.1,17.9-40,40-40s40,17.9,40,40s-17.9,40-40,40S610,172.1,610,150z"/>
	</g>
	<defs>
		<filter id="Adobe_OpacityMaskFilter" filterUnits="userSpaceOnUse" x="0" y="0" width="700" height="600">
			
				<feColorMatrix  type="matrix" values="-1 0 0 0 1  0 -1 0 0 1  0 0 -1 0 1  0 0 0 1 0" color-interpolation-filters="sRGB" result="source"/>
		</filter>
	</defs>
	<mask maskUnits="userSpaceOnUse" x="0" y="0" width="700" height="600" id="SVGID_1_">
		<g class="st1">
			
				<image style="overflow:visible;" width="704" height="604" xlink:href="9E8D323B27CF7AAD.jpg"  transform="matrix(1 0 0 1 -2 -2)">
			</image>
		</g>
	</mask>
	<g class="st2">
		<path class="st3" d="M675,0H25C11.2,0,0,11.2,0,25v550c0,13.8,11.2,25,25,25h650c13.8,0,25-11.2,25-25V25C700,11.2,688.8,0,675,0z
			 M650,10c22.1,0,40,17.9,40,40s-17.9,40-40,40s-40-17.9-40-40S627.9,10,650,10z M550,10c22.1,0,40,17.9,40,40s-17.9,40-40,40
			s-40-17.9-40-40S527.9,10,550,10z M550,490c-22.1,0-40-17.9-40-40s17.9-40,40-40s40,17.9,40,40S572.1,490,550,490z M450,490
			c-22.1,0-40-17.9-40-40s17.9-40,40-40s40,17.9,40,40S472.1,490,450,490z M350,490c-22.1,0-40-17.9-40-40s17.9-40,40-40
			s40,17.9,40,40S372.1,490,350,490z M250,490c-22.1,0-40-17.9-40-40s17.9-40,40-40s40,17.9,40,40S272.1,490,250,490z M150,490
			c-22.1,0-40-17.9-40-40s17.9-40,40-40s40,17.9,40,40S172.1,490,150,490z M150,110c22.1,0,40,17.9,40,40s-17.9,40-40,40
			s-40-17.9-40-40S127.9,110,150,110z M250,110c22.1,0,40,17.9,40,40s-17.9,40-40,40s-40-17.9-40-40S227.9,110,250,110z M350,110
			c22.1,0,40,17.9,40,40s-17.9,40-40,40s-40-17.9-40-40S327.9,110,350,110z M450,110c22.1,0,40,17.9,40,40s-17.9,40-40,40
			s-40-17.9-40-40S427.9,110,450,110z M490,350c0,22.1-17.9,40-40,40s-40-17.9-40-40s17.9-40,40-40S490,327.9,490,350z M390,350
			c0,22.1-17.9,40-40,40s-40-17.9-40-40s17.9-40,40-40S390,327.9,390,350z M290,350c0,22.1-17.9,40-40,40s-40-17.9-40-40
			s17.9-40,40-40S290,327.9,290,350z M210,250c0-22.1,17.9-40,40-40s40,17.9,40,40s-17.9,40-40,40S210,272.1,210,250z M310,250
			c0-22.1,17.9-40,40-40s40,17.9,40,40s-17.9,40-40,40S310,272.1,310,250z M450,290c-22.1,0-40-17.9-40-40s17.9-40,40-40
			s40,17.9,40,40S472.1,290,450,290z M150,210c22.1,0,40,17.9,40,40s-17.9,40-40,40s-40-17.9-40-40S127.9,210,150,210z M150,310
			c22.1,0,40,17.9,40,40s-17.9,40-40,40s-40-17.9-40-40S127.9,310,150,310z M550,390c-22.1,0-40-17.9-40-40s17.9-40,40-40
			s40,17.9,40,40S572.1,390,550,390z M550,290c-22.1,0-40-17.9-40-40s17.9-40,40-40s40,17.9,40,40S572.1,290,550,290z M550,190
			c-22.1,0-40-17.9-40-40s17.9-40,40-40s40,17.9,40,40S572.1,190,550,190z M450,10c22.1,0,40,17.9,40,40s-17.9,40-40,40
			s-40-17.9-40-40S427.9,10,450,10z M350,10c22.1,0,40,17.9,40,40s-17.9,40-40,40s-40-17.9-40-40S327.9,10,350,10z M250,10
			c22.1,0,40,17.9,40,40s-17.9,40-40,40s-40-17.9-40-40S227.9,10,250,10z M150,10c22.1,0,40,17.9,40,40s-17.9,40-40,40
			s-40-17.9-40-40S127.9,10,150,10z M50,10c22.1,0,40,17.9,40,40S72.1,90,50,90S10,72.1,10,50S27.9,10,50,10z M90,150
			c0,22.1-17.9,40-40,40s-40-17.9-40-40s17.9-40,40-40S90,127.9,90,150z M90,250c0,22.1-17.9,40-40,40s-40-17.9-40-40s17.9-40,40-40
			S90,227.9,90,250z M90,350c0,22.1-17.9,40-40,40s-40-17.9-40-40s17.9-40,40-40S90,327.9,90,350z M90,450c0,22.1-17.9,40-40,40
			s-40-17.9-40-40s17.9-40,40-40S90,427.9,90,450z M50,590c-22.1,0-40-17.9-40-40s17.9-40,40-40s40,17.9,40,40S72.1,590,50,590z
			 M150,590c-22.1,0-40-17.9-40-40s17.9-40,40-40s40,17.9,40,40S172.1,590,150,590z M250,590c-22.1,0-40-17.9-40-40s17.9-40,40-40
			s40,17.9,40,40S272.1,590,250,590z M350,590c-22.1,0-40-17.9-40-40s17.9-40,40-40s40,17.9,40,40S372.1,590,350,590z M450,590
			c-22.1,0-40-17.9-40-40s17.9-40,40-40s40,17.9,40,40S472.1,590,450,590z M550,590c-22.1,0-40-17.9-40-40s17.9-40,40-40
			s40,17.9,40,40S572.1,590,550,590z M650,590c-22.1,0-40-17.9-40-40s17.9-40,40-40s40,17.9,40,40S672.1,590,650,590z M610,450
			c0-22.1,17.9-40,40-40s40,17.9,40,40s-17.9,40-40,40S610,472.1,610,450z M610,350c0-22.1,17.9-40,40-40s40,17.9,40,40
			s-17.9,40-40,40S610,372.1,610,350z M610,250c0-22.1,17.9-40,40-40s40,17.9,40,40s-17.9,40-40,40S610,272.1,610,250z M610,150
			c0-22.1,17.9-40,40-40s40,17.9,40,40s-17.9,40-40,40S610,172.1,610,150z"/>
	</g>
</g>
<linearGradient id="SVGID_2_" gradientUnits="userSpaceOnUse" x1="349.9998" y1="597.1691" x2="349.9998" y2="2.8308">
	<stop  offset="0" style="stop-color:#FFFFFF"/>
	<stop  offset="0.1321" style="stop-color:#E4E4E4"/>
	<stop  offset="0.417" style="stop-color:#9E9E9E"/>
	<stop  offset="0.8292" style="stop-color:#303030"/>
	<stop  offset="1" style="stop-color:#000000"/>
</linearGradient>
<path class="st4" d="M650,595.7c-25.2,0-45.7-20.5-45.7-45.7s20.5-45.7,45.7-45.7s45.7,20.5,45.7,45.7S675.2,595.7,650,595.7z
	 M550,595.7c-25.2,0-45.7-20.5-45.7-45.7s20.5-45.7,45.7-45.7s45.7,20.5,45.7,45.7S575.2,595.7,550,595.7z M450,595.7
	c-25.2,0-45.7-20.5-45.7-45.7s20.5-45.7,45.7-45.7s45.7,20.5,45.7,45.7S475.2,595.7,450,595.7z M350,595.7
	c-25.2,0-45.7-20.5-45.7-45.7s20.5-45.7,45.7-45.7c25.2,0,45.7,20.5,45.7,45.7S375.2,595.7,350,595.7z M250,595.7
	c-25.2,0-45.7-20.5-45.7-45.7s20.5-45.7,45.7-45.7s45.7,20.5,45.7,45.7S275.2,595.7,250,595.7z M150,595.7
	c-25.2,0-45.7-20.5-45.7-45.7s20.5-45.7,45.7-45.7s45.7,20.5,45.7,45.7S175.2,595.7,150,595.7z M50,595.7
	c-25.2,0-45.7-20.5-45.7-45.7s20.5-45.7,45.7-45.7s45.7,20.5,45.7,45.7S75.2,595.7,50,595.7z M650,495.7
	c-25.2,0-45.7-20.5-45.7-45.7s20.5-45.7,45.7-45.7s45.7,20.5,45.7,45.7S675.2,495.7,650,495.7z M550,495.7
	c-25.2,0-45.7-20.5-45.7-45.7s20.5-45.7,45.7-45.7s45.7,20.5,45.7,45.7S575.2,495.7,550,495.7z M450,495.7
	c-25.2,0-45.7-20.5-45.7-45.7s20.5-45.7,45.7-45.7s45.7,20.5,45.7,45.7S475.2,495.7,450,495.7z M350,495.7
	c-25.2,0-45.7-20.5-45.7-45.7s20.5-45.7,45.7-45.7c25.2,0,45.7,20.5,45.7,45.7S375.2,495.7,350,495.7z M250,495.7
	c-25.2,0-45.7-20.5-45.7-45.7s20.5-45.7,45.7-45.7s45.7,20.5,45.7,45.7S275.2,495.7,250,495.7z M150,495.7
	c-25.2,0-45.7-20.5-45.7-45.7s20.5-45.7,45.7-45.7s45.7,20.5,45.7,45.7S175.2,495.7,150,495.7z M50,495.7
	c-25.2,0-45.7-20.5-45.7-45.7s20.5-45.7,45.7-45.7s45.7,20.5,45.7,45.7S75.2,495.7,50,495.7z M650,395.7
	c-25.2,0-45.7-20.5-45.7-45.7s20.5-45.7,45.7-45.7s45.7,20.5,45.7,45.7S675.2,395.7,650,395.7z M550,395.7
	c-25.2,0-45.7-20.5-45.7-45.7s20.5-45.7,45.7-45.7s45.7,20.5,45.7,45.7S575.2,395.7,550,395.7z M450,395.7
	c-25.2,0-45.7-20.5-45.7-45.7s20.5-45.7,45.7-45.7s45.7,20.5,45.7,45.7S475.2,395.7,450,395.7z M350,395.7
	c-25.2,0-45.7-20.5-45.7-45.7s20.5-45.7,45.7-45.7c25.2,0,45.7,20.5,45.7,45.7S375.2,395.7,350,395.7z M250,395.7
	c-25.2,0-45.7-20.5-45.7-45.7s20.5-45.7,45.7-45.7s45.7,20.5,45.7,45.7S275.2,395.7,250,395.7z M150,395.7
	c-25.2,0-45.7-20.5-45.7-45.7s20.5-45.7,45.7-45.7s45.7,20.5,45.7,45.7S175.2,395.7,150,395.7z M50,395.7
	c-25.2,0-45.7-20.5-45.7-45.7s20.5-45.7,45.7-45.7s45.7,20.5,45.7,45.7S75.2,395.7,50,395.7z M650,295.7
	c-25.2,0-45.7-20.5-45.7-45.7s20.5-45.7,45.7-45.7s45.7,20.5,45.7,45.7S675.2,295.7,650,295.7z M550,295.7
	c-25.2,0-45.7-20.5-45.7-45.7s20.5-45.7,45.7-45.7s45.7,20.5,45.7,45.7S575.2,295.7,550,295.7z M450,295.7
	c-25.2,0-45.7-20.5-45.7-45.7s20.5-45.7,45.7-45.7s45.7,20.5,45.7,45.7S475.2,295.7,450,295.7z M350,295.7
	c-25.2,0-45.7-20.5-45.7-45.7s20.5-45.7,45.7-45.7c25.2,0,45.7,20.5,45.7,45.7S375.2,295.7,350,295.7z M250,295.7
	c-25.2,0-45.7-20.5-45.7-45.7s20.5-45.7,45.7-45.7s45.7,20.5,45.7,45.7S275.2,295.7,250,295.7z M150,295.7
	c-25.2,0-45.7-20.5-45.7-45.7s20.5-45.7,45.7-45.7s45.7,20.5,45.7,45.7S175.2,295.7,150,295.7z M50,295.7
	c-25.2,0-45.7-20.5-45.7-45.7s20.5-45.7,45.7-45.7s45.7,20.5,45.7,45.7S75.2,295.7,50,295.7z M650,195.7
	c-25.2,0-45.7-20.5-45.7-45.7s20.5-45.7,45.7-45.7s45.7,20.5,45.7,45.7S675.2,195.7,650,195.7z M550,195.7
	c-25.2,0-45.7-20.5-45.7-45.7s20.5-45.7,45.7-45.7s45.7,20.5,45.7,45.7S575.2,195.7,550,195.7z M450,195.7
	c-25.2,0-45.7-20.5-45.7-45.7s20.5-45.7,45.7-45.7s45.7,20.5,45.7,45.7S475.2,195.7,450,195.7z M350,195.7
	c-25.2,0-45.7-20.5-45.7-45.7s20.5-45.7,45.7-45.7c25.2,0,45.7,20.5,45.7,45.7S375.2,195.7,350,195.7z M250,195.7
	c-25.2,0-45.7-20.5-45.7-45.7s20.5-45.7,45.7-45.7s45.7,20.5,45.7,45.7S275.2,195.7,250,195.7z M150,195.7
	c-25.2,0-45.7-20.5-45.7-45.7s20.5-45.7,45.7-45.7s45.7,20.5,45.7,45.7S175.2,195.7,150,195.7z M50,195.7
	c-25.2,0-45.7-20.5-45.7-45.7s20.5-45.7,45.7-45.7s45.7,20.5,45.7,45.7S75.2,195.7,50,195.7z M650,95.7c-25.2,0-45.7-20.5-45.7-45.7
	S624.8,4.3,650,4.3s45.7,20.5,45.7,45.7S675.2,95.7,650,95.7z M550,95.7c-25.2,0-45.7-20.5-45.7-45.7S524.8,4.3,550,4.3
	s45.7,20.5,45.7,45.7S575.2,95.7,550,95.7z M450,95.7c-25.2,0-45.7-20.5-45.7-45.7S424.8,4.3,450,4.3s45.7,20.5,45.7,45.7
	S475.2,95.7,450,95.7z M350,95.7c-25.2,0-45.7-20.5-45.7-45.7S324.8,4.3,350,4.3c25.2,0,45.7,20.5,45.7,45.7S375.2,95.7,350,95.7z
	 M250,95.7c-25.2,0-45.7-20.5-45.7-45.7S224.8,4.3,250,4.3s45.7,20.5,45.7,45.7S275.2,95.7,250,95.7z M150,95.7
	c-25.2,0-45.7-20.5-45.7-45.7S124.8,4.3,150,4.3s45.7,20.5,45.7,45.7S175.2,95.7,150,95.7z M50,95.7C24.8,95.7,4.3,75.2,4.3,50
	S24.8,4.3,50,4.3S95.7,24.8,95.7,50S75.2,95.7,50,95.7z"/>
<path class="st5" d="M650,10c22.1,0,40,17.9,40,40s-17.9,40-40,40s-40-17.9-40-40S627.9,10,650,10z M550,10c22.1,0,40,17.9,40,40
	s-17.9,40-40,40s-40-17.9-40-40S527.9,10,550,10z M550,490c-22.1,0-40-17.9-40-40s17.9-40,40-40s40,17.9,40,40S572.1,490,550,490z
	 M450,490c-22.1,0-40-17.9-40-40s17.9-40,40-40s40,17.9,40,40S472.1,490,450,490z M350,490c-22.1,0-40-17.9-40-40s17.9-40,40-40
	s40,17.9,40,40S372.1,490,350,490z M250,490c-22.1,0-40-17.9-40-40s17.9-40,40-40s40,17.9,40,40S272.1,490,250,490z M150,490
	c-22.1,0-40-17.9-40-40s17.9-40,40-40s40,17.9,40,40S172.1,490,150,490z M150,110c22.1,0,40,17.9,40,40s-17.9,40-40,40
	s-40-17.9-40-40S127.9,110,150,110z M250,110c22.1,0,40,17.9,40,40s-17.9,40-40,40s-40-17.9-40-40S227.9,110,250,110z M350,110
	c22.1,0,40,17.9,40,40s-17.9,40-40,40s-40-17.9-40-40S327.9,110,350,110z M450,110c22.1,0,40,17.9,40,40s-17.9,40-40,40
	s-40-17.9-40-40S427.9,110,450,110z M490,350c0,22.1-17.9,40-40,40s-40-17.9-40-40s17.9-40,40-40S490,327.9,490,350z M390,350
	c0,22.1-17.9,40-40,40s-40-17.9-40-40s17.9-40,40-40S390,327.9,390,350z M290,350c0,22.1-17.9,40-40,40s-40-17.9-40-40
	s17.9-40,40-40S290,327.9,290,350z M210,250c0-22.1,17.9-40,40-40s40,17.9,40,40s-17.9,40-40,40S210,272.1,210,250z M310,250
	c0-22.1,17.9-40,40-40s40,17.9,40,40s-17.9,40-40,40S310,272.1,310,250z M450,290c-22.1,0-40-17.9-40-40s17.9-40,40-40
	s40,17.9,40,40S472.1,290,450,290z M150,210c22.1,0,40,17.9,40,40s-17.9,40-40,40s-40-17.9-40-40S127.9,210,150,210z M150,310
	c22.1,0,40,17.9,40,40s-17.9,40-40,40s-40-17.9-40-40S127.9,310,150,310z M550,390c-22.1,0-40-17.9-40-40s17.9-40,40-40
	s40,17.9,40,40S572.1,390,550,390z M550,290c-22.1,0-40-17.9-40-40s17.9-40,40-40s40,17.9,40,40S572.1,290,550,290z M550,190
	c-22.1,0-40-17.9-40-40s17.9-40,40-40s40,17.9,40,40S572.1,190,550,190z M450,10c22.1,0,40,17.9,40,40s-17.9,40-40,40
	s-40-17.9-40-40S427.9,10,450,10z M350,10c22.1,0,40,17.9,40,40s-17.9,40-40,40s-40-17.9-40-40S327.9,10,350,10z M250,10
	c22.1,0,40,17.9,40,40s-17.9,40-40,40s-40-17.9-40-40S227.9,10,250,10z M150,10c22.1,0,40,17.9,40,40s-17.9,40-40,40s-40-17.9-40-40
	S127.9,10,150,10z M50,10c22.1,0,40,17.9,40,40S72.1,90,50,90S10,72.1,10,50S27.9,10,50,10z M90,150c0,22.1-17.9,40-40,40
	s-40-17.9-40-40s17.9-40,40-40S90,127.9,90,150z M90,250c0,22.1-17.9,40-40,40s-40-17.9-40-40s17.9-40,40-40S90,227.9,90,250z
	 M90,350c0,22.1-17.9,40-40,40s-40-17.9-40-40s17.9-40,40-40S90,327.9,90,350z M90,450c0,22.1-17.9,40-40,40s-40-17.9-40-40
	s17.9-40,40-40S90,427.9,90,450z M50,590c-22.1,0-40-17.9-40-40s17.9-40,40-40s40,17.9,40,40S72.1,590,50,590z M150,590
	c-22.1,0-40-17.9-40-40s17.9-40,40-40s40,17.9,40,40S172.1,590,150,590z M250,590c-22.1,0-40-17.9-40-40s17.9-40,40-40
	s40,17.9,40,40S272.1,590,250,590z M350,590c-22.1,0-40-17.9-40-40s17.9-40,40-40s40,17.9,40,40S372.1,590,350,590z M450,590
	c-22.1,0-40-17.9-40-40s17.9-40,40-40s40,17.9,40,40S472.1,590,450,590z M550,590c-22.1,0-40-17.9-40-40s17.9-40,40-40
	s40,17.9,40,40S572.1,590,550,590z M650,590c-22.1,0-40-17.9-40-40s17.9-40,40-40s40,17.9,40,40S672.1,590,650,590z M610,450
	c0-22.1,17.9-40,40-40s40,17.9,40,40s-17.9,40-40,40S610,472.1,610,450z M610,350c0-22.1,17.9-40,40-40s40,17.9,40,40
	s-17.9,40-40,40S610,372.1,610,350z M610,250c0-22.1,17.9-40,40-40s40,17.9,40,40s-17.9,40-40,40S610,272.1,610,250z M610,150
	c0-22.1,17.9-40,40-40s40,17.9,40,40s-17.9,40-40,40S610,172.1,610,150z"/>
<linearGradient id="SVGID_3_" gradientUnits="userSpaceOnUse" x1="349.9998" y1="97.1696" x2="349.9998" y2="2.8308" gradientTransform="matrix(-1 0 0 -1 699.9995 100.0004)">
	<stop  offset="0" style="stop-color:#FFFFFF"/>
	<stop  offset="0.1321" style="stop-color:#E4E4E4"/>
	<stop  offset="0.417" style="stop-color:#9E9E9E"/>
	<stop  offset="0.8292" style="stop-color:#303030"/>
	<stop  offset="1" style="stop-color:#000000"/>
</linearGradient>
<path class="st6" d="M50,4.3c25.2,0,45.7,20.5,45.7,45.7S75.2,95.7,50,95.7S4.3,75.2,4.3,50S24.8,4.3,50,4.3z M150,4.3
	c25.2,0,45.7,20.5,45.7,45.7S175.2,95.7,150,95.7S104.3,75.2,104.3,50S124.8,4.3,150,4.3z M250,4.3c25.2,0,45.7,20.5,45.7,45.7
	S275.2,95.7,250,95.7S204.3,75.2,204.3,50S224.8,4.3,250,4.3z M350,4.3c25.2,0,45.7,20.5,45.7,45.7S375.2,95.7,350,95.7
	c-25.2,0-45.7-20.5-45.7-45.7S324.8,4.3,350,4.3z M450,4.3c25.2,0,45.7,20.5,45.7,45.7S475.2,95.7,450,95.7S404.3,75.2,404.3,50
	S424.8,4.3,450,4.3z M550,4.3c25.2,0,45.7,20.5,45.7,45.7S575.2,95.7,550,95.7S504.3,75.2,504.3,50S524.8,4.3,550,4.3z M650,4.3
	c25.2,0,45.7,20.5,45.7,45.7S675.2,95.7,650,95.7S604.3,75.2,604.3,50S624.8,4.3,650,4.3z"/>
<linearGradient id="SVGID_4_" gradientUnits="userSpaceOnUse" x1="349.9998" y1="-2.8303" x2="349.9998" y2="-97.1691" gradientTransform="matrix(-1 0 0 -1 699.9995 100.0004)">
	<stop  offset="0" style="stop-color:#FFFFFF"/>
	<stop  offset="7.515582e-02" style="stop-color:#D8D8D8"/>
	<stop  offset="0.2125" style="stop-color:#979797"/>
	<stop  offset="0.3436" style="stop-color:#616161"/>
	<stop  offset="0.4646" style="stop-color:#373737"/>
	<stop  offset="0.5734" style="stop-color:#191919"/>
	<stop  offset="0.6662" style="stop-color:#070707"/>
	<stop  offset="0.732" style="stop-color:#000000"/>
</linearGradient>
<path class="st7" d="M50,104.3c25.2,0,45.7,20.5,45.7,45.7S75.2,195.7,50,195.7S4.3,175.2,4.3,150S24.8,104.3,50,104.3z M150,104.3
	c25.2,0,45.7,20.5,45.7,45.7s-20.5,45.7-45.7,45.7s-45.7-20.5-45.7-45.7S124.8,104.3,150,104.3z M250,104.3
	c25.2,0,45.7,20.5,45.7,45.7s-20.5,45.7-45.7,45.7s-45.7-20.5-45.7-45.7S224.8,104.3,250,104.3z M350,104.3
	c25.2,0,45.7,20.5,45.7,45.7s-20.5,45.7-45.7,45.7c-25.2,0-45.7-20.5-45.7-45.7S324.8,104.3,350,104.3z M450,104.3
	c25.2,0,45.7,20.5,45.7,45.7s-20.5,45.7-45.7,45.7s-45.7-20.5-45.7-45.7S424.8,104.3,450,104.3z M550,104.3
	c25.2,0,45.7,20.5,45.7,45.7s-20.5,45.7-45.7,45.7s-45.7-20.5-45.7-45.7S524.8,104.3,550,104.3z M650,104.3
	c25.2,0,45.7,20.5,45.7,45.7s-20.5,45.7-45.7,45.7s-45.7-20.5-45.7-45.7S624.8,104.3,650,104.3z"/>
<linearGradient id="SVGID_5_" gradientUnits="userSpaceOnUse" x1="349.9998" y1="-102.8302" x2="349.9998" y2="-197.169" gradientTransform="matrix(-1 0 0 -1 699.9995 100.0004)">
	<stop  offset="0" style="stop-color:#FFFFFF"/>
	<stop  offset="0.1321" style="stop-color:#E4E4E4"/>
	<stop  offset="0.417" style="stop-color:#9E9E9E"/>
	<stop  offset="0.8292" style="stop-color:#303030"/>
	<stop  offset="1" style="stop-color:#000000"/>
</linearGradient>
<path class="st8" d="M50,204.3c25.2,0,45.7,20.5,45.7,45.7S75.2,295.7,50,295.7S4.3,275.2,4.3,250S24.8,204.3,50,204.3z M150,204.3
	c25.2,0,45.7,20.5,45.7,45.7s-20.5,45.7-45.7,45.7s-45.7-20.5-45.7-45.7S124.8,204.3,150,204.3z M250,204.3
	c25.2,0,45.7,20.5,45.7,45.7s-20.5,45.7-45.7,45.7s-45.7-20.5-45.7-45.7S224.8,204.3,250,204.3z M350,204.3
	c25.2,0,45.7,20.5,45.7,45.7s-20.5,45.7-45.7,45.7c-25.2,0-45.7-20.5-45.7-45.7S324.8,204.3,350,204.3z M450,204.3
	c25.2,0,45.7,20.5,45.7,45.7s-20.5,45.7-45.7,45.7s-45.7-20.5-45.7-45.7S424.8,204.3,450,204.3z M550,204.3
	c25.2,0,45.7,20.5,45.7,45.7s-20.5,45.7-45.7,45.7s-45.7-20.5-45.7-45.7S524.8,204.3,550,204.3z M650,204.3
	c25.2,0,45.7,20.5,45.7,45.7s-20.5,45.7-45.7,45.7s-45.7-20.5-45.7-45.7S624.8,204.3,650,204.3z"/>
<linearGradient id="SVGID_6_" gradientUnits="userSpaceOnUse" x1="349.9998" y1="-202.8301" x2="349.9998" y2="-297.1689" gradientTransform="matrix(-1 0 0 -1 699.9995 100.0004)">
	<stop  offset="0" style="stop-color:#FFFFFF"/>
	<stop  offset="0.1321" style="stop-color:#E4E4E4"/>
	<stop  offset="0.417" style="stop-color:#9E9E9E"/>
	<stop  offset="0.8292" style="stop-color:#303030"/>
	<stop  offset="1" style="stop-color:#000000"/>
</linearGradient>
<path class="st9" d="M50,304.3c25.2,0,45.7,20.5,45.7,45.7S75.2,395.7,50,395.7S4.3,375.2,4.3,350S24.8,304.3,50,304.3z M150,304.3
	c25.2,0,45.7,20.5,45.7,45.7s-20.5,45.7-45.7,45.7s-45.7-20.5-45.7-45.7S124.8,304.3,150,304.3z M250,304.3
	c25.2,0,45.7,20.5,45.7,45.7s-20.5,45.7-45.7,45.7s-45.7-20.5-45.7-45.7S224.8,304.3,250,304.3z M350,304.3
	c25.2,0,45.7,20.5,45.7,45.7s-20.5,45.7-45.7,45.7c-25.2,0-45.7-20.5-45.7-45.7S324.8,304.3,350,304.3z M450,304.3
	c25.2,0,45.7,20.5,45.7,45.7s-20.5,45.7-45.7,45.7s-45.7-20.5-45.7-45.7S424.8,304.3,450,304.3z M550,304.3
	c25.2,0,45.7,20.5,45.7,45.7s-20.5,45.7-45.7,45.7s-45.7-20.5-45.7-45.7S524.8,304.3,550,304.3z M650,304.3
	c25.2,0,45.7,20.5,45.7,45.7s-20.5,45.7-45.7,45.7s-45.7-20.5-45.7-45.7S624.8,304.3,650,304.3z"/>
<linearGradient id="SVGID_7_" gradientUnits="userSpaceOnUse" x1="349.9998" y1="-302.83" x2="349.9998" y2="-397.1689" gradientTransform="matrix(-1 0 0 -1 699.9995 100.0004)">
	<stop  offset="0" style="stop-color:#FFFFFF"/>
	<stop  offset="0.1321" style="stop-color:#E4E4E4"/>
	<stop  offset="0.417" style="stop-color:#9E9E9E"/>
	<stop  offset="0.8292" style="stop-color:#303030"/>
	<stop  offset="1" style="stop-color:#000000"/>
</linearGradient>
<path class="st10" d="M50,404.3c25.2,0,45.7,20.5,45.7,45.7S75.2,495.7,50,495.7S4.3,475.2,4.3,450S24.8,404.3,50,404.3z M150,404.3
	c25.2,0,45.7,20.5,45.7,45.7s-20.5,45.7-45.7,45.7s-45.7-20.5-45.7-45.7S124.8,404.3,150,404.3z M250,404.3
	c25.2,0,45.7,20.5,45.7,45.7s-20.5,45.7-45.7,45.7s-45.7-20.5-45.7-45.7S224.8,404.3,250,404.3z M350,404.3
	c25.2,0,45.7,20.5,45.7,45.7s-20.5,45.7-45.7,45.7c-25.2,0-45.7-20.5-45.7-45.7S324.8,404.3,350,404.3z M450,404.3
	c25.2,0,45.7,20.5,45.7,45.7s-20.5,45.7-45.7,45.7s-45.7-20.5-45.7-45.7S424.8,404.3,450,404.3z M550,404.3
	c25.2,0,45.7,20.5,45.7,45.7s-20.5,45.7-45.7,45.7s-45.7-20.5-45.7-45.7S524.8,404.3,550,404.3z M650,404.3
	c25.2,0,45.7,20.5,45.7,45.7s-20.5,45.7-45.7,45.7s-45.7-20.5-45.7-45.7S624.8,404.3,650,404.3z"/>
<linearGradient id="SVGID_8_" gradientUnits="userSpaceOnUse" x1="349.9998" y1="-402.8299" x2="349.9998" y2="-497.1687" gradientTransform="matrix(-1 0 0 -1 699.9995 100.0004)">
	<stop  offset="0" style="stop-color:#FFFFFF"/>
	<stop  offset="0.1321" style="stop-color:#E4E4E4"/>
	<stop  offset="0.417" style="stop-color:#9E9E9E"/>
	<stop  offset="0.8292" style="stop-color:#303030"/>
	<stop  offset="1" style="stop-color:#000000"/>
</linearGradient>
<path class="st11" d="M50,504.3c25.2,0,45.7,20.5,45.7,45.7S75.2,595.7,50,595.7S4.3,575.2,4.3,550S24.8,504.3,50,504.3z M150,504.3
	c25.2,0,45.7,20.5,45.7,45.7s-20.5,45.7-45.7,45.7s-45.7-20.5-45.7-45.7S124.8,504.3,150,504.3z M250,504.3
	c25.2,0,45.7,20.5,45.7,45.7s-20.5,45.7-45.7,45.7s-45.7-20.5-45.7-45.7S224.8,504.3,250,504.3z M350,504.3
	c25.2,0,45.7,20.5,45.7,45.7s-20.5,45.7-45.7,45.7c-25.2,0-45.7-20.5-45.7-45.7S324.8,504.3,350,504.3z M450,504.3
	c25.2,0,45.7,20.5,45.7,45.7s-20.5,45.7-45.7,45.7s-45.7-20.5-45.7-45.7S424.8,504.3,450,504.3z M550,504.3
	c25.2,0,45.7,20.5,45.7,45.7s-20.5,45.7-45.7,45.7s-45.7-20.5-45.7-45.7S524.8,504.3,550,504.3z M650,504.3
	c25.2,0,45.7,20.5,45.7,45.7s-20.5,45.7-45.7,45.7s-45.7-20.5-45.7-45.7S624.8,504.3,650,504.3z"/>
</svg>
