<?xml version="1.0" encoding="utf-8"?>
<!-- Generator: Adobe Illustrator 23.0.3, SVG Export Plug-In . SVG Version: 6.00 Build 0)  -->
<svg version="1.1" id="Layer_1" xmlns="http://www.w3.org/2000/svg" xmlns:xlink="http://www.w3.org/1999/xlink" x="0px" y="0px"
	 viewBox="0 0 700 600" style="enable-background:new 0 0 700 600;" xml:space="preserve">
<style type="text/css">
	.st0{fill:#845757;}
</style>
<path class="st0" d="M650,10c22.1,0,40,17.9,40,40s-17.9,40-40,40s-40-17.9-40-40S627.9,10,650,10z M550,10c22.1,0,40,17.9,40,40
	s-17.9,40-40,40s-40-17.9-40-40S527.9,10,550,10z M550,490c-22.1,0-40-17.9-40-40s17.9-40,40-40s40,17.9,40,40S572.1,490,550,490z
	 M450,490c-22.1,0-40-17.9-40-40s17.9-40,40-40s40,17.9,40,40S472.1,490,450,490z M350,490c-22.1,0-40-17.9-40-40s17.9-40,40-40
	s40,17.9,40,40S372.1,490,350,490z M250,490c-22.1,0-40-17.9-40-40s17.9-40,40-40s40,17.9,40,40S272.1,490,250,490z M150,490
	c-22.1,0-40-17.9-40-40s17.9-40,40-40s40,17.9,40,40S172.1,490,150,490z M150,110c22.1,0,40,17.9,40,40s-17.9,40-40,40
	s-40-17.9-40-40S127.9,110,150,110z M250,110c22.1,0,40,17.9,40,40s-17.9,40-40,40s-40-17.9-40-40S227.9,110,250,110z M350,110
	c22.1,0,40,17.9,40,40s-17.9,40-40,40s-40-17.9-40-40S327.9,110,350,110z M450,110c22.1,0,40,17.9,40,40s-17.9,40-40,40
	s-40-17.9-40-40S427.9,110,450,110z M490,350c0,22.1-17.9,40-40,40s-40-17.9-40-40s17.9-40,40-40S490,327.9,490,350z M390,350
	c0,22.1-17.9,40-40,40s-40-17.9-40-40s17.9-40,40-40S390,327.9,390,350z M290,350c0,22.1-17.9,40-40,40s-40-17.9-40-40
	s17.9-40,40-40S290,327.9,290,350z M210,250c0-22.1,17.9-40,40-40s40,17.9,40,40s-17.9,40-40,40S210,272.1,210,250z M310,250
	c0-22.1,17.9-40,40-40s40,17.9,40,40s-17.9,40-40,40S310,272.1,310,250z M450,290c-22.1,0-40-17.9-40-40s17.9-40,40-40
	s40,17.9,40,40S472.1,290,450,290z M150,210c22.1,0,40,17.9,40,40s-17.9,40-40,40s-40-17.9-40-40S127.9,210,150,210z M150,310
	c22.1,0,40,17.9,40,40s-17.9,40-40,40s-40-17.9-40-40S127.9,310,150,310z M550,390c-22.1,0-40-17.9-40-40s17.9-40,40-40
	s40,17.9,40,40S572.1,390,550,390z M550,290c-22.1,0-40-17.9-40-40s17.9-40,40-40s40,17.9,40,40S572.1,290,550,290z M550,190
	c-22.1,0-40-17.9-40-40s17.9-40,40-40s40,17.9,40,40S572.1,190,550,190z M450,10c22.1,0,40,17.9,40,40s-17.9,40-40,40
	s-40-17.9-40-40S427.9,10,450,10z M350,10c22.1,0,40,17.9,40,40s-17.9,40-40,40s-40-17.9-40-40S327.9,10,350,10z M250,10
	c22.1,0,40,17.9,40,40s-17.9,40-40,40s-40-17.9-40-40S227.9,10,250,10z M150,10c22.1,0,40,17.9,40,40s-17.9,40-40,40s-40-17.9-40-40
	S127.9,10,150,10z M50,10c22.1,0,40,17.9,40,40S72.1,90,50,90S10,72.1,10,50S27.9,10,50,10z M90,150c0,22.1-17.9,40-40,40
	s-40-17.9-40-40s17.9-40,40-40S90,127.9,90,150z M90,250c0,22.1-17.9,40-40,40s-40-17.9-40-40s17.9-40,40-40S90,227.9,90,250z
	 M90,350c0,22.1-17.9,40-40,40s-40-17.9-40-40s17.9-40,40-40S90,327.9,90,350z M90,450c0,22.1-17.9,40-40,40s-40-17.9-40-40
	s17.9-40,40-40S90,427.9,90,450z M50,590c-22.1,0-40-17.9-40-40s17.9-40,40-40s40,17.9,40,40S72.1,590,50,590z M150,590
	c-22.1,0-40-17.9-40-40s17.9-40,40-40s40,17.9,40,40S172.1,590,150,590z M250,590c-22.1,0-40-17.9-40-40s17.9-40,40-40
	s40,17.9,40,40S272.1,590,250,590z M350,590c-22.1,0-40-17.9-40-40s17.9-40,40-40s40,17.9,40,40S372.1,590,350,590z M450,590
	c-22.1,0-40-17.9-40-40s17.9-40,40-40s40,17.9,40,40S472.1,590,450,590z M550,590c-22.1,0-40-17.9-40-40s17.9-40,40-40
	s40,17.9,40,40S572.1,590,550,590z M650,590c-22.1,0-40-17.9-40-40s17.9-40,40-40s40,17.9,40,40S672.1,590,650,590z M610,450
	c0-22.1,17.9-40,40-40s40,17.9,40,40s-17.9,40-40,40S610,472.1,610,450z M610,350c0-22.1,17.9-40,40-40s40,17.9,40,40
	s-17.9,40-40,40S610,372.1,610,350z M610,250c0-22.1,17.9-40,40-40s40,17.9,40,40s-17.9,40-40,40S610,272.1,610,250z M610,150
	c0-22.1,17.9-40,40-40s40,17.9,40,40s-17.9,40-40,40S610,172.1,610,150z"/>
<path d="M675,0H25C11.2,0,0,11.2,0,25v550c0,13.8,11.2,25,25,25h650c13.8,0,25-11.2,25-25V25C700,11.2,688.8,0,675,0z M650,10
	c22.1,0,40,17.9,40,40s-17.9,40-40,40s-40-17.9-40-40S627.9,10,650,10z M550,10c22.1,0,40,17.9,40,40s-17.9,40-40,40s-40-17.9-40-40
	S527.9,10,550,10z M550,490c-22.1,0-40-17.9-40-40s17.9-40,40-40s40,17.9,40,40S572.1,490,550,490z M450,490c-22.1,0-40-17.9-40-40
	s17.9-40,40-40s40,17.9,40,40S472.1,490,450,490z M350,490c-22.1,0-40-17.9-40-40s17.9-40,40-40s40,17.9,40,40S372.1,490,350,490z
	 M250,490c-22.1,0-40-17.9-40-40s17.9-40,40-40s40,17.9,40,40S272.1,490,250,490z M150,490c-22.1,0-40-17.9-40-40s17.9-40,40-40
	s40,17.9,40,40S172.1,490,150,490z M150,110c22.1,0,40,17.9,40,40s-17.9,40-40,40s-40-17.9-40-40S127.9,110,150,110z M250,110
	c22.1,0,40,17.9,40,40s-17.9,40-40,40s-40-17.9-40-40S227.9,110,250,110z M350,110c22.1,0,40,17.9,40,40s-17.9,40-40,40
	s-40-17.9-40-40S327.9,110,350,110z M450,110c22.1,0,40,17.9,40,40s-17.9,40-40,40s-40-17.9-40-40S427.9,110,450,110z M490,350
	c0,22.1-17.9,40-40,40s-40-17.9-40-40s17.9-40,40-40S490,327.9,490,350z M390,350c0,22.1-17.9,40-40,40s-40-17.9-40-40
	s17.9-40,40-40S390,327.9,390,350z M290,350c0,22.1-17.9,40-40,40s-40-17.9-40-40s17.9-40,40-40S290,327.9,290,350z M210,250
	c0-22.1,17.9-40,40-40s40,17.9,40,40s-17.9,40-40,40S210,272.1,210,250z M310,250c0-22.1,17.9-40,40-40s40,17.9,40,40
	s-17.9,40-40,40S310,272.1,310,250z M450,290c-22.1,0-40-17.9-40-40s17.9-40,40-40s40,17.9,40,40S472.1,290,450,290z M150,210
	c22.1,0,40,17.9,40,40s-17.9,40-40,40s-40-17.9-40-40S127.9,210,150,210z M150,310c22.1,0,40,17.9,40,40s-17.9,40-40,40
	s-40-17.9-40-40S127.9,310,150,310z M550,390c-22.1,0-40-17.9-40-40s17.9-40,40-40s40,17.9,40,40S572.1,390,550,390z M550,290
	c-22.1,0-40-17.9-40-40s17.9-40,40-40s40,17.9,40,40S572.1,290,550,290z M550,190c-22.1,0-40-17.9-40-40s17.9-40,40-40
	s40,17.9,40,40S572.1,190,550,190z M450,10c22.1,0,40,17.9,40,40s-17.9,40-40,40s-40-17.9-40-40S427.9,10,450,10z M350,10
	c22.1,0,40,17.9,40,40s-17.9,40-40,40s-40-17.9-40-40S327.9,10,350,10z M250,10c22.1,0,40,17.9,40,40s-17.9,40-40,40s-40-17.9-40-40
	S227.9,10,250,10z M150,10c22.1,0,40,17.9,40,40s-17.9,40-40,40s-40-17.9-40-40S127.9,10,150,10z M50,10c22.1,0,40,17.9,40,40
	S72.1,90,50,90S10,72.1,10,50S27.9,10,50,10z M90,150c0,22.1-17.9,40-40,40s-40-17.9-40-40s17.9-40,40-40S90,127.9,90,150z M90,250
	c0,22.1-17.9,40-40,40s-40-17.9-40-40s17.9-40,40-40S90,227.9,90,250z M90,350c0,22.1-17.9,40-40,40s-40-17.9-40-40s17.9-40,40-40
	S90,327.9,90,350z M90,450c0,22.1-17.9,40-40,40s-40-17.9-40-40s17.9-40,40-40S90,427.9,90,450z M50,590c-22.1,0-40-17.9-40-40
	s17.9-40,40-40s40,17.9,40,40S72.1,590,50,590z M150,590c-22.1,0-40-17.9-40-40s17.9-40,40-40s40,17.9,40,40S172.1,590,150,590z
	 M250,590c-22.1,0-40-17.9-40-40s17.9-40,40-40s40,17.9,40,40S272.1,590,250,590z M350,590c-22.1,0-40-17.9-40-40s17.9-40,40-40
	s40,17.9,40,40S372.1,590,350,590z M450,590c-22.1,0-40-17.9-40-40s17.9-40,40-40s40,17.9,40,40S472.1,590,450,590z M550,590
	c-22.1,0-40-17.9-40-40s17.9-40,40-40s40,17.9,40,40S572.1,590,550,590z M650,590c-22.1,0-40-17.9-40-40s17.9-40,40-40
	s40,17.9,40,40S672.1,590,650,590z M610,450c0-22.1,17.9-40,40-40s40,17.9,40,40s-17.9,40-40,40S610,472.1,610,450z M610,350
	c0-22.1,17.9-40,40-40s40,17.9,40,40s-17.9,40-40,40S610,372.1,610,350z M610,250c0-22.1,17.9-40,40-40s40,17.9,40,40
	s-17.9,40-40,40S610,272.1,610,250z M610,150c0-22.1,17.9-40,40-40s40,17.9,40,40s-17.9,40-40,40S610,172.1,610,150z"/>
</svg>
